<svg xmlns="http://www.w3.org/2000/svg" width="512" height="512" viewBox="0 0 512 512"><defs><linearGradient id="bgGradient" x1="0%" x2="100%" y1="0%" y2="100%"><stop offset="0%" style="stop-color:#e63946;stop-opacity:1"/><stop offset="100%" style="stop-color:#d62828;stop-opacity:1"/></linearGradient><linearGradient id="heartGradient" x1="0%" x2="0%" y1="0%" y2="100%"><stop offset="0%" style="stop-color:#fff;stop-opacity:1"/><stop offset="100%" style="stop-color:#f1faee;stop-opacity:1"/></linearGradient></defs><circle cx="256" cy="256" r="240" fill="url(#bgGradient)"/><path fill="url(#heartGradient)" stroke="none" d="M 256 400 C 200 360, 140 310, 140 240 C 140 200, 165 170, 200 170 C 225 170, 245 185, 256 205 C 267 185, 287 170, 312 170 C 347 170, 372 200, 372 240 C 372 310, 312 360, 256 400 Z"/><g transform="translate(256, 256)"><rect width="24" height="100" x="-12" y="-50" fill="#E63946" rx="4"/><rect width="100" height="24" x="-50" y="-12" fill="#E63946" rx="4"/></g><ellipse cx="200" cy="180" fill="#fff" opacity=".15" rx="60" ry="40"/></svg>